<svg width="21" height="15" viewBox="0 0 21 15" fill="none" xmlns="http://www.w3.org/2000/svg">
<g filter="url(#filter0_d_206_32)">
<path fill-rule="evenodd" clip-rule="evenodd" d="M4.14689 0.146894C4.19334 0.10033 4.24852 0.0633873 4.30926 0.0381808C4.37001 0.0129744 4.43513 0 4.50089 0C4.56666 0 4.63178 0.0129744 4.69253 0.0381808C4.75327 0.0633873 4.80845 0.10033 4.85489 0.146894L10.5009 5.79389L16.1469 0.146894C16.1934 0.100406 16.2486 0.0635292 16.3093 0.0383701C16.37 0.013211 16.4351 0.000261784 16.5009 0.000261784C16.5666 0.000261784 16.6317 0.013211 16.6925 0.0383701C16.7532 0.0635292 16.8084 0.100406 16.8549 0.146894C16.9014 0.193381 16.9383 0.248571 16.9634 0.30931C16.9886 0.370049 17.0015 0.43515 17.0015 0.500894C17.0015 0.566637 16.9886 0.631738 16.9634 0.692477C16.9383 0.753217 16.9014 0.808406 16.8549 0.854894L10.8549 6.85489C10.8084 6.90146 10.7533 6.9384 10.6925 6.96361C10.6318 6.98881 10.5667 7.00179 10.5009 7.00179C10.4351 7.00179 10.37 6.98881 10.3093 6.96361C10.2485 6.9384 10.1933 6.90146 10.1469 6.85489L4.14689 0.854894C4.10033 0.808448 4.06339 0.753272 4.03818 0.692527C4.01297 0.631782 4 0.566661 4 0.500894C4 0.435126 4.01297 0.370005 4.03818 0.30926C4.06339 0.248515 4.10033 0.193339 4.14689 0.146894Z" fill="black"/>
<path d="M4.5 0.500895L4.50089 0.5L4.50131 0.500416L10.1473 6.14742L10.5009 6.50106L10.8545 6.14742L16.5004 0.500447L16.5005 0.500416L16.5007 0.50031L16.5009 0.500262L16.5011 0.50031L16.5013 0.500447L16.5015 0.500652L16.5015 0.500894L16.5015 0.501136L16.5013 0.50134L10.5013 6.50134L10.5009 6.50179L10.5004 6.50134L4.50045 0.50134L4.5 0.500895Z" stroke="black"/>
</g>
<defs>
<filter id="filter0_d_206_32" x="0" y="0" width="21.0015" height="15.0018" filterUnits="userSpaceOnUse" color-interpolation-filters="sRGB">
<feFlood flood-opacity="0" result="BackgroundImageFix"/>
<feColorMatrix in="SourceAlpha" type="matrix" values="0 0 0 0 0 0 0 0 0 0 0 0 0 0 0 0 0 0 127 0" result="hardAlpha"/>
<feOffset dy="4"/>
<feGaussianBlur stdDeviation="2"/>
<feComposite in2="hardAlpha" operator="out"/>
<feColorMatrix type="matrix" values="0 0 0 0 0 0 0 0 0 0 0 0 0 0 0 0 0 0 0.25 0"/>
<feBlend mode="normal" in2="BackgroundImageFix" result="effect1_dropShadow_206_32"/>
<feBlend mode="normal" in="SourceGraphic" in2="effect1_dropShadow_206_32" result="shape"/>
</filter>
</defs>
</svg>
